<?xml version="1.0" encoding="utf-8"?>
<!-- Generator: Adobe Illustrator 28.2.0, SVG Export Plug-In . SVG Version: 6.00 Build 0)  -->
<svg version="1.1" id="Layer_1" xmlns="http://www.w3.org/2000/svg" xmlns:xlink="http://www.w3.org/1999/xlink" x="0px" y="0px"
	 viewBox="0 0 256 256" style="enable-background:new 0 0 256 256;" xml:space="preserve">
<style type="text/css">
	.st0{fill-rule:evenodd;clip-rule:evenodd;fill:#FFFFFF;}
</style>
<g id="SVGRepo_bgCarrier">
</g>
<g id="SVGRepo_tracerCarrier">
</g>
<g id="SVGRepo_iconCarrier">
	<path class="st0" d="M256,0H0v256h256V0z M128.4,190.4c0,21.5-12.8,34.1-34.9,34.1c-21.1,0-33.9-12.5-34.5-31.7v-0.6h20.8v0.4
		c0.4,7.9,5.1,13.4,13.5,13.4c9.1,0,13.8-5.5,13.8-15.7v-70.6h21.4V190.4z M226.8,191.4c0,20.3-15.7,33.1-41.2,33.1
		c-24.4,0-39.9-11.7-41.1-29.8l-0.1-1.1H165l0.1,0.7c0.8,7.7,9.1,12.8,21,12.8c11.4,0,19.3-5.5,19.3-13.3v-0.1
		c0-6.7-5-10.5-17.7-13.1l-10.8-2.2c-21.2-4.3-30.4-14.2-30.4-29.8v-0.1c0-19,16.3-31.5,39-31.5c23.9,0,37.9,12.6,39.2,29.7l0.1,0.9
		h-20.1l-0.1-0.8c-1.2-7.3-8.3-12.4-19.1-12.4c-10.6,0.1-17.6,4.9-17.6,12.5v0.1c0,6.7,5,10.6,17,13.1l10.8,2.2
		C217.4,166.8,226.8,175.4,226.8,191.4L226.8,191.4z"/>
</g>
</svg>
